<svg xmlns="http://www.w3.org/2000/svg" width="850" height="478" viewBox="0 0 850 478" font-family="-apple-system,Segoe UI,Roboto,sans-serif" role="img" aria-labelledby="chart-title chart-description">
<title id="chart-title">Compute-heavy Nix evaluation</title>
<desc id="chart-description">C++ Nix parity line with paired jinx interpreter and JIT speedup bars for six compute workloads.</desc>
<rect width="850" height="478" fill="#ffffff"/>
<text x="425.0" y="27" text-anchor="middle" font-size="17" font-weight="700" fill="#1a1a2e">Compute-heavy Nix evaluation</text>
<rect x="270" y="40" width="12" height="12" rx="2" fill="#60a5fa"/>
<text x="288" y="51" font-size="11" fill="#374151">jinx interpreter</text>
<rect x="400" y="40" width="12" height="12" rx="2" fill="#1d4ed8"/>
<text x="418" y="51" font-size="11" fill="#374151">jinx JIT</text>
<line x1="422.3" y1="84" x2="422.3" y2="454" stroke="#6b7280" stroke-width="1" stroke-dasharray="4 3"/>
<text x="422.3" y="79" text-anchor="middle" font-size="11" fill="#6b7280">1× C++ Nix</text>
<text x="258" y="115" text-anchor="end" font-size="12.5" fill="#1a1a2e">strict numerical fold, 1M</text>
<rect x="270" y="93" width="209.1" height="18" rx="3" fill="#60a5fa"/>
<rect x="270" y="115" width="299.3" height="18" rx="3" fill="#1d4ed8"/>
<text x="486.1" y="107" font-size="11.5" font-weight="700" fill="#1a1a2e">1.37×</text>
<text x="576.3" y="129" font-size="11.5" font-weight="700" fill="#1a1a2e">1.97×</text>
<text x="258" y="173" text-anchor="end" font-size="12.5" fill="#1a1a2e">stable sort, 100k mixed ints</text>
<rect x="270" y="151" width="338.8" height="18" rx="3" fill="#60a5fa"/>
<rect x="270" y="173" width="446.4" height="18" rx="3" fill="#1d4ed8"/>
<text x="615.8" y="165" font-size="11.5" font-weight="700" fill="#1a1a2e">2.22×</text>
<text x="723.4" y="187" font-size="11.5" font-weight="700" fill="#1a1a2e">2.93×</text>
<text x="258" y="231" text-anchor="end" font-size="12.5" fill="#1a1a2e">trial-division prime scan</text>
<rect x="270" y="209" width="198.8" height="18" rx="3" fill="#60a5fa"/>
<rect x="270" y="231" width="204.5" height="18" rx="3" fill="#1d4ed8"/>
<text x="475.8" y="223" font-size="11.5" font-weight="700" fill="#1a1a2e">1.31×</text>
<text x="481.5" y="245" font-size="11.5" font-weight="700" fill="#1a1a2e">1.34×</text>
<text x="258" y="289" text-anchor="end" font-size="12.5" fill="#1a1a2e">naive recursive fibonacci</text>
<rect x="270" y="267" width="203.0" height="18" rx="3" fill="#60a5fa"/>
<rect x="270" y="289" width="231.0" height="18" rx="3" fill="#1d4ed8"/>
<text x="480.0" y="281" font-size="11.5" font-weight="700" fill="#1a1a2e">1.33×</text>
<text x="508.0" y="303" font-size="11.5" font-weight="700" fill="#1a1a2e">1.52×</text>
<text x="258" y="347" text-anchor="end" font-size="12.5" fill="#1a1a2e">10-queens search</text>
<rect x="270" y="325" width="170.7" height="18" rx="3" fill="#60a5fa"/>
<rect x="270" y="347" width="177.1" height="18" rx="3" fill="#1d4ed8"/>
<text x="447.7" y="339" font-size="11.5" font-weight="700" fill="#1a1a2e">1.12×</text>
<text x="454.1" y="361" font-size="11.5" font-weight="700" fill="#1a1a2e">1.16×</text>
<text x="258" y="405" text-anchor="end" font-size="12.5" fill="#1a1a2e">static record equality/select</text>
<rect x="270" y="383" width="232.2" height="18" rx="3" fill="#60a5fa"/>
<rect x="270" y="405" width="254.9" height="18" rx="3" fill="#1d4ed8"/>
<text x="509.2" y="397" font-size="11.5" font-weight="700" fill="#1a1a2e">1.52×</text>
<text x="531.9" y="419" font-size="11.5" font-weight="700" fill="#1a1a2e">1.67×</text>
</svg>