<svg xmlns="http://www.w3.org/2000/svg" width="850" height="478" viewBox="0 0 850 478" font-family="-apple-system,Segoe UI,Roboto,sans-serif" role="img" aria-labelledby="chart-title chart-description">
<title id="chart-title">Compute-heavy Nix evaluation</title>
<desc id="chart-description">C++ Nix parity line with paired jinx interpreter and JIT speedup bars for six compute workloads.</desc>
<rect width="850" height="478" fill="#ffffff"/>
<text x="425.0" y="27" text-anchor="middle" font-size="17" font-weight="700" fill="#1a1a2e">Compute-heavy Nix evaluation</text>
<rect x="270" y="40" width="12" height="12" rx="2" fill="#60a5fa"/>
<text x="288" y="51" font-size="11" fill="#374151">jinx interpreter</text>
<rect x="400" y="40" width="12" height="12" rx="2" fill="#1d4ed8"/>
<text x="418" y="51" font-size="11" fill="#374151">jinx JIT</text>
<line x1="412.9" y1="84" x2="412.9" y2="454" stroke="#6b7280" stroke-width="1" stroke-dasharray="4 3"/>
<text x="412.9" y="79" text-anchor="middle" font-size="11" fill="#6b7280">1× C++ Nix</text>
<text x="258" y="115" text-anchor="end" font-size="12.5" fill="#1a1a2e">strict numerical fold, 1M</text>
<rect x="270" y="93" width="201.4" height="18" rx="3" fill="#60a5fa"/>
<rect x="270" y="115" width="289.9" height="18" rx="3" fill="#1d4ed8"/>
<text x="478.4" y="107" font-size="11.5" font-weight="700" fill="#1a1a2e">1.41×</text>
<text x="566.9" y="129" font-size="11.5" font-weight="700" fill="#1a1a2e">2.03×</text>
<text x="258" y="173" text-anchor="end" font-size="12.5" fill="#1a1a2e">stable sort, 100k mixed ints</text>
<rect x="270" y="151" width="330.9" height="18" rx="3" fill="#60a5fa"/>
<rect x="270" y="173" width="446.4" height="18" rx="3" fill="#1d4ed8"/>
<text x="607.9" y="165" font-size="11.5" font-weight="700" fill="#1a1a2e">2.31×</text>
<text x="723.4" y="187" font-size="11.5" font-weight="700" fill="#1a1a2e">3.12×</text>
<text x="258" y="231" text-anchor="end" font-size="12.5" fill="#1a1a2e">trial-division prime scan</text>
<rect x="270" y="209" width="186.3" height="18" rx="3" fill="#60a5fa"/>
<rect x="270" y="231" width="189.8" height="18" rx="3" fill="#1d4ed8"/>
<text x="463.3" y="223" font-size="11.5" font-weight="700" fill="#1a1a2e">1.30×</text>
<text x="466.8" y="245" font-size="11.5" font-weight="700" fill="#1a1a2e">1.33×</text>
<text x="258" y="289" text-anchor="end" font-size="12.5" fill="#1a1a2e">naive recursive fibonacci</text>
<rect x="270" y="267" width="181.2" height="18" rx="3" fill="#60a5fa"/>
<rect x="270" y="289" width="185.4" height="18" rx="3" fill="#1d4ed8"/>
<text x="458.2" y="281" font-size="11.5" font-weight="700" fill="#1a1a2e">1.27×</text>
<text x="462.4" y="303" font-size="11.5" font-weight="700" fill="#1a1a2e">1.30×</text>
<text x="258" y="347" text-anchor="end" font-size="12.5" fill="#1a1a2e">10-queens search</text>
<rect x="270" y="325" width="174.4" height="18" rx="3" fill="#60a5fa"/>
<rect x="270" y="347" width="181.4" height="18" rx="3" fill="#1d4ed8"/>
<text x="451.4" y="339" font-size="11.5" font-weight="700" fill="#1a1a2e">1.22×</text>
<text x="458.4" y="361" font-size="11.5" font-weight="700" fill="#1a1a2e">1.27×</text>
<text x="258" y="405" text-anchor="end" font-size="12.5" fill="#1a1a2e">static record equality/select</text>
<rect x="270" y="383" width="174.2" height="18" rx="3" fill="#60a5fa"/>
<rect x="270" y="405" width="243.8" height="18" rx="3" fill="#1d4ed8"/>
<text x="451.2" y="397" font-size="11.5" font-weight="700" fill="#1a1a2e">1.22×</text>
<text x="520.8" y="419" font-size="11.5" font-weight="700" fill="#1a1a2e">1.71×</text>
</svg>