<svg xmlns="http://www.w3.org/2000/svg" width="760" height="300" viewBox="0 0 760 300" font-family="-apple-system,Segoe UI,Roboto,sans-serif" role="img" aria-labelledby="chart-title chart-description">
<title id="chart-title">Peak RSS: jinx vs C++ Nix (lower is better)</title>
<desc id="chart-description">Grouped peak-memory bars for hello, Firefox, and NixOS ISO evaluation; lower is better.</desc>
<rect width="760" height="300" fill="#ffffff"/>
<text x="380.0" y="28" text-anchor="middle" font-size="17" font-weight="700" fill="#1a1a2e">Peak RSS: jinx vs C++ Nix (lower is better)</text>
<rect x="74.0" y="117.8" width="58.0" height="136.2" rx="3" fill="#9ca3af"/>
<rect x="148.0" y="94.0" width="58.0" height="160.0" rx="3" fill="#2563eb"/>
<text x="103.0" y="110.8" text-anchor="middle" font-size="11" font-weight="400" fill="#6b7280">135 MiB</text>
<text x="177.0" y="87.0" text-anchor="middle" font-size="11" font-weight="700" fill="#1a1a2e">159 MiB</text>
<text x="140.0" y="272.0" text-anchor="middle" font-size="13" font-weight="400" fill="#1a1a2e">hello</text>
<text x="140.0" y="288.0" text-anchor="middle" font-size="11" font-weight="400" fill="#6b7280">1.2× oracle</text>
<rect x="314.0" y="129.6" width="58.0" height="124.4" rx="3" fill="#9ca3af"/>
<rect x="388.0" y="94.0" width="58.0" height="160.0" rx="3" fill="#2563eb"/>
<text x="343.0" y="122.6" text-anchor="middle" font-size="11" font-weight="400" fill="#6b7280">405 MiB</text>
<text x="417.0" y="87.0" text-anchor="middle" font-size="11" font-weight="700" fill="#1a1a2e">520 MiB</text>
<text x="380.0" y="272.0" text-anchor="middle" font-size="13" font-weight="400" fill="#1a1a2e">firefox</text>
<text x="380.0" y="288.0" text-anchor="middle" font-size="11" font-weight="400" fill="#6b7280">1.3× oracle</text>
<rect x="554.0" y="101.9" width="58.0" height="152.1" rx="3" fill="#9ca3af"/>
<rect x="628.0" y="94.0" width="58.0" height="160.0" rx="3" fill="#2563eb"/>
<text x="583.0" y="94.9" text-anchor="middle" font-size="11" font-weight="400" fill="#6b7280">1.73 GiB</text>
<text x="657.0" y="87.0" text-anchor="middle" font-size="11" font-weight="700" fill="#1a1a2e">1.81 GiB</text>
<text x="620.0" y="272.0" text-anchor="middle" font-size="13" font-weight="400" fill="#1a1a2e">NixOS ISO</text>
<text x="620.0" y="288.0" text-anchor="middle" font-size="11" font-weight="400" fill="#6b7280">1.1× oracle</text>
<rect x="560.0" y="44.0" width="12.0" height="12.0" rx="3" fill="#9ca3af"/>
<text x="578.0" y="54.0" text-anchor="start" font-size="11.5" font-weight="400" fill="#6b7280">C++ Nix (Boehm)</text>
<rect x="682.0" y="44.0" width="12.0" height="12.0" rx="3" fill="#2563eb"/>
<text x="700.0" y="54.0" text-anchor="start" font-size="11.5" font-weight="400" fill="#1a1a2e">jinx</text>
</svg>