<svg xmlns="http://www.w3.org/2000/svg" width="760" height="300" viewBox="0 0 760 300" font-family="-apple-system,Segoe UI,Roboto,sans-serif">
<rect width="760" height="300" fill="#ffffff"/>
<text x="380.0" y="28" text-anchor="middle" font-size="17" font-weight="700" fill="#1a1a2e">Wall time: jinx vs C++ Nix on real nixpkgs evals</text>
<rect x="74.0" y="94.0" width="58.0" height="160.0" rx="3" fill="#9ca3af"/>
<rect x="148.0" y="129.0" width="58.0" height="125.0" rx="3" fill="#2563eb"/>
<text x="103.0" y="87.0" text-anchor="middle" font-size="11.5" font-weight="400" fill="#6b7280">199ms</text>
<text x="177.0" y="122.0" text-anchor="middle" font-size="11.5" font-weight="700" fill="#1a1a2e">155ms</text>
<text x="140.0" y="272.0" text-anchor="middle" font-size="13" font-weight="400" fill="#1a1a2e">hello</text>
<text x="140.0" y="288.0" text-anchor="middle" font-size="11" font-weight="700" fill="#2563eb">1.28× faster</text>
<rect x="314.0" y="94.0" width="58.0" height="160.0" rx="3" fill="#9ca3af"/>
<rect x="388.0" y="129.3" width="58.0" height="124.7" rx="3" fill="#2563eb"/>
<text x="343.0" y="87.0" text-anchor="middle" font-size="11.5" font-weight="400" fill="#6b7280">590ms</text>
<text x="417.0" y="122.3" text-anchor="middle" font-size="11.5" font-weight="700" fill="#1a1a2e">460ms</text>
<text x="380.0" y="272.0" text-anchor="middle" font-size="13" font-weight="400" fill="#1a1a2e">firefox</text>
<text x="380.0" y="288.0" text-anchor="middle" font-size="11" font-weight="700" fill="#2563eb">1.28× faster</text>
<rect x="554.0" y="94.0" width="58.0" height="160.0" rx="3" fill="#9ca3af"/>
<rect x="628.0" y="160.7" width="58.0" height="93.3" rx="3" fill="#2563eb"/>
<text x="583.0" y="87.0" text-anchor="middle" font-size="11.5" font-weight="400" fill="#6b7280">7.88s</text>
<text x="657.0" y="153.7" text-anchor="middle" font-size="11.5" font-weight="700" fill="#1a1a2e">4.60s</text>
<text x="620.0" y="272.0" text-anchor="middle" font-size="13" font-weight="400" fill="#1a1a2e">NixOS ISO</text>
<text x="620.0" y="288.0" text-anchor="middle" font-size="11" font-weight="700" fill="#2563eb">1.71× faster</text>
<rect x="560.0" y="44.0" width="12.0" height="12.0" rx="3" fill="#9ca3af"/>
<text x="578.0" y="54.0" text-anchor="start" font-size="11.5" font-weight="400" fill="#6b7280">C++ Nix</text>
<rect x="650.0" y="44.0" width="12.0" height="12.0" rx="3" fill="#2563eb"/>
<text x="668.0" y="54.0" text-anchor="start" font-size="11.5" font-weight="400" fill="#1a1a2e">jinx</text>
</svg>